<svg width="100" height="100" viewBox="0 0 100 100" fill="none" xmlns="http://www.w3.org/2000/svg">
<path d="M43 13H83.667V13.667H43V13Z" fill="#F0F0F0" stroke="#CA4D65" stroke-width="6"/>
<path d="M54.167 73.333V75.833H56.667H87.5V76.667C87.5 82.6514 82.6461 87.5 76.667 87.5H50C44.0156 87.5 39.167 82.6461 39.167 76.667V38.047C39.167 35.5921 40.1591 33.3764 41.7678 31.7678L47.7025 25.833H78.9645L84.8988 31.7673C84.8989 31.7675 84.8991 31.7676 84.8992 31.7678C86.387 33.2565 87.3479 35.2644 87.4835 37.5H56.667H54.167V40V73.333Z" fill="#F0F0F0" stroke="black" stroke-width="5"/>
<path d="M90 46.667H63.333V66.667H90V46.667Z" fill="#CA4D65"/>
<path d="M30.833 32.22L30.833 32.2235C30.8383 36.0115 28.1744 39.3127 24.3136 40.4151L22.5 40.9329V42.819V87.5H20.833V42.816V40.9303L19.0199 40.4122C15.1669 39.3113 12.5 36.0087 12.5 32.22C12.5 26.4053 13.7425 21.2654 15.6301 17.6701C17.579 13.9582 19.8374 12.5 21.667 12.5C23.4964 12.5 25.7546 13.9582 27.7033 17.6704C29.5907 21.2658 30.833 26.4058 30.833 32.22Z" fill="#CA4D65" stroke="black" stroke-width="5"/>
</svg>
